<?xml version="1.0" standalone="no"?>
<!DOCTYPE svg PUBLIC "-//W3C//DTD SVG 20010904//EN"
 "http://www.w3.org/TR/2001/REC-SVG-20010904/DTD/svg10.dtd">
<svg version="1.0" xmlns="http://www.w3.org/2000/svg"
 width="420.000000pt" height="268.000000pt" viewBox="0 0 420.000000 268.000000"
 preserveAspectRatio="xMidYMid meet">

<g transform="translate(0.000000,268.000000) scale(0.100000,-0.100000)"
fill="#000000" stroke="none">
<path d="M1835 2356 c-82 -26 -242 -125 -377 -232 -57 -46 -67 -59 -73 -95
-10 -59 -49 -99 -105 -106 -32 -4 -58 -17 -92 -45 -27 -22 -48 -44 -48 -49 0
-20 152 -179 171 -179 11 0 37 14 58 31 32 25 39 38 44 75 6 53 27 80 73 93
51 14 94 -3 161 -64 34 -30 65 -55 70 -55 4 1 46 36 92 78 l83 78 -51 67 c-59
79 -67 103 -51 151 21 66 118 135 295 211 50 21 94 42 100 47 15 13 -306 8
-350 -6z"/>
<path d="M2636 2311 c-93 -48 -148 -91 -177 -137 -17 -29 -23 -58 -29 -152 -4
-70 -13 -132 -23 -154 -8 -20 -51 -74 -95 -120 l-80 -83 61 -70 c33 -38 64
-70 69 -70 4 0 47 36 96 81 125 116 169 134 275 113 91 -18 157 0 218 61 58
58 77 114 85 250 6 101 -3 153 -27 158 -9 2 -41 -37 -84 -103 -59 -90 -74
-107 -105 -116 -31 -9 -43 -8 -77 9 -53 28 -103 85 -103 120 0 15 25 72 56
125 78 138 67 154 -60 88z"/>
<path d="M1876 1723 c-53 -46 -76 -72 -74 -85 2 -11 182 -224 402 -473 336
-384 403 -455 425 -455 36 0 141 93 141 125 0 14 -13 39 -28 57 -433 505 -775
898 -781 898 -4 0 -42 -30 -85 -67z"/>
<path d="M1825 1273 c-304 -290 -437 -427 -437 -450 0 -38 99 -135 133 -131
19 2 96 70 267 237 l241 234 -29 36 c-16 20 -49 57 -72 84 l-43 47 -60 -57z"/>
<path d="M790 175 c0 -88 1 -95 20 -95 18 0 20 7 21 68 1 74 3 73 19 -10 7
-37 16 -58 25 -58 9 0 18 21 25 58 16 83 18 84 19 10 1 -61 3 -68 21 -68 19 0
20 7 20 95 l0 95 -30 0 c-24 0 -31 -5 -35 -27 -19 -91 -21 -92 -34 -30 -12 54
-14 57 -42 57 l-29 0 0 -95z"/>
<path d="M1011 233 c-27 -107 -33 -125 -38 -139 -3 -9 2 -14 16 -14 14 0 23 8
27 25 4 16 13 25 25 25 12 0 21 -9 25 -25 4 -15 13 -25 24 -25 17 0 17 4 -1
83 -10 45 -19 88 -19 95 0 6 -11 12 -25 12 -20 0 -26 -7 -34 -37z m41 -38 c3
-24 0 -35 -9 -35 -14 0 -17 27 -7 54 9 23 11 20 16 -19z"/>
<path d="M1120 175 c0 -88 1 -95 20 -95 18 0 20 7 20 80 l0 80 30 0 c20 0 30
5 30 15 0 11 -12 15 -50 15 l-50 0 0 -95z"/>
<path d="M1240 180 c-12 -50 -20 -93 -17 -97 12 -11 37 7 37 27 0 31 44 23 48
-8 2 -14 10 -22 23 -22 24 0 26 -14 -16 168 -4 15 -13 22 -29 22 -22 0 -26 -8
-46 -90z m59 -7 c1 -7 -6 -13 -15 -13 -12 0 -15 6 -10 23 3 12 6 29 7 37 1 15
16 -24 18 -47z"/>
<path d="M1382 258 c-15 -15 -16 -48 -1 -48 7 0 17 7 24 17 13 18 35 10 35
-13 0 -8 -7 -17 -15 -20 -8 -4 -15 -12 -15 -20 0 -8 7 -14 15 -14 9 0 15 -9
15 -24 0 -32 -19 -44 -35 -23 -7 10 -20 17 -29 17 -19 0 -20 -4 -6 -31 8 -14
21 -19 51 -19 32 0 41 4 51 25 8 19 8 31 0 51 -9 18 -9 31 -1 45 24 45 -52 94
-89 57z"/>
<path d="M1507 263 c-4 -3 -7 -46 -7 -95 0 -87 1 -89 22 -86 17 2 28 16 43 58
l20 55 3 -57 c2 -43 7 -58 17 -58 12 0 15 19 15 96 0 85 -2 95 -17 92 -11 -2
-27 -26 -40 -58 l-22 -55 -1 58 c0 41 -4 57 -13 57 -8 0 -17 -3 -20 -7z"/>
<path d="M1650 175 c0 -85 2 -95 18 -95 15 0 18 8 18 42 -1 37 2 43 22 46 20
3 22 -1 22 -42 0 -39 3 -46 20 -46 19 0 20 7 20 95 0 88 -1 95 -20 95 -16 0
-20 -7 -20 -34 0 -53 -44 -58 -46 -6 -2 39 -3 40 -19 40 -12 0 -15 -17 -15
-95z"/>
<path d="M1860 175 c0 -85 2 -95 18 -95 13 0 24 17 39 58 l22 57 0 -57 c1 -49
4 -58 19 -58 16 0 18 10 17 93 0 85 -1 92 -20 92 -15 0 -25 -14 -40 -55 l-20
-55 -3 58 c-2 42 -7 57 -17 57 -12 0 -15 -19 -15 -95z"/>
<path d="M2000 175 c0 -88 1 -95 20 -95 17 0 20 7 20 45 0 38 3 45 20 45 17 0
20 -7 20 -45 0 -38 3 -45 20 -45 19 0 20 7 20 96 0 86 -2 95 -17 92 -12 -2
-20 -15 -23 -38 -3 -23 -11 -36 -22 -38 -15 -2 -18 5 -18 38 0 33 -3 40 -20
40 -19 0 -20 -7 -20 -95z"/>
<path d="M2161 256 c-19 -22 -24 -117 -9 -146 27 -50 108 -34 108 22 0 27 -29
22 -40 -7 -6 -17 -14 -23 -25 -19 -24 10 -17 127 8 132 10 2 17 -3 17 -12 0
-9 8 -16 20 -16 25 0 26 22 2 43 -23 21 -65 22 -81 3z"/>
<path d="M2277 263 c-14 -13 -6 -23 18 -23 25 0 25 -1 25 -81 0 -71 2 -80 18
-77 14 3 17 16 19 78 1 68 3 75 22 78 12 2 21 10 21 18 0 10 -14 14 -58 14
-32 0 -62 -3 -65 -7z"/>
<path d="M2420 175 c0 -76 3 -95 14 -95 10 0 16 13 18 38 2 31 7 38 28 40 37
6 50 21 50 58 0 39 -21 54 -74 54 l-36 0 0 -95z m77 49 c7 -19 -20 -49 -36
-40 -6 4 -11 18 -11 32 0 17 5 24 20 24 11 0 23 -7 27 -16z"/>
<path d="M2550 267 c0 -2 11 -37 25 -78 23 -65 24 -75 10 -85 -22 -16 -19 -24
9 -24 20 0 28 9 44 52 33 90 44 129 38 135 -13 13 -33 -8 -46 -48 l-13 -44
-15 48 c-11 33 -21 47 -34 47 -10 0 -18 -1 -18 -3z"/>
<path d="M2700 175 c0 -78 3 -95 15 -95 12 0 15 16 16 78 l1 77 18 -73 c9 -40
20 -76 24 -79 12 -13 24 13 39 82 l15 70 1 -77 c1 -62 4 -78 16 -78 12 0 15
17 15 96 l0 95 -27 -3 c-24 -3 -28 -9 -38 -53 -11 -55 -19 -52 -30 13 -6 38
-9 42 -36 42 l-29 0 0 -95z"/>
<path d="M2890 175 l0 -95 50 0 c38 0 50 4 50 15 0 10 -10 15 -29 15 -30 0
-45 19 -35 45 4 8 17 15 31 15 15 0 23 5 20 13 -2 6 -15 12 -28 12 -17 0 -24
6 -24 20 0 15 8 21 33 23 20 2 32 9 32 18 0 10 -13 14 -50 14 l-50 0 0 -95z"/>
<path d="M3010 175 c0 -88 1 -95 20 -95 17 0 20 7 20 45 0 38 3 45 20 45 20 0
22 -7 23 -63 0 -19 5 -27 19 -27 16 0 18 10 18 96 0 86 -2 95 -17 92 -13 -3
-17 -12 -15 -30 2 -26 -9 -40 -35 -44 -9 -2 -13 11 -13 37 0 32 -3 39 -20 39
-19 0 -20 -7 -20 -95z"/>
<path d="M3150 255 c0 -8 9 -15 20 -15 18 0 20 -7 20 -80 0 -73 2 -80 20 -80
18 0 20 7 20 80 0 73 2 80 20 80 11 0 20 7 20 15 0 12 -13 15 -60 15 -47 0
-60 -3 -60 -15z"/>
<path d="M3317 263 c-5 -9 -47 -166 -47 -177 0 -3 9 -6 19 -6 13 0 21 8 23 23
4 32 45 36 50 5 4 -28 38 -38 38 -11 -1 10 -9 52 -18 93 -15 62 -21 76 -39 78
-12 2 -23 -1 -26 -5z m33 -79 c0 -13 -6 -24 -13 -24 -9 0 -12 10 -9 30 5 35
22 30 22 -6z"/>
</g>
</svg>
